# Wavefront OBJ file automatically generated by Tiled2Unity

# Vertices (Count = 240)
v -288 -16 0
v -304 -16 0
v -304 0 0
v -288 0 0
v -272 -16 0
v -272 0 0
v -256 -16 0
v -256 0 0
v -240 -16 0
v -240 0 0
v -224 -16 0
v -224 0 0
v -208 -16 0
v -208 0 0
v -192 -16 0
v -192 0 0
v -176 -16 0
v -176 0 0
v -160 -16 0
v -160 0 0
v -144 -16 0
v -144 0 0
v -128 -16 0
v -128 0 0
v -112 -16 0
v -112 0 0
v -96 -16 0
v -96 0 0
v -80 -16 0
v -80 0 0
v -64 -16 0
v -64 0 0
v -48 -16 0
v -48 0 0
v -32 -16 0
v -32 0 0
v -16 -16 0
v -16 0 0
v 0 -16 0
v 0 0 0
v -288 -32 0
v -304 -32 0
v -272 -32 0
v -256 -32 0
v -240 -32 0
v -224 -32 0
v -208 -32 0
v -192 -32 0
v -176 -32 0
v -160 -32 0
v -144 -32 0
v -128 -32 0
v -112 -32 0
v -96 -32 0
v -80 -32 0
v -64 -32 0
v -48 -32 0
v -32 -32 0
v -16 -32 0
v 0 -32 0
v -288 -48 0
v -304 -48 0
v -272 -48 0
v -256 -48 0
v -240 -48 0
v -224 -48 0
v -208 -48 0
v -192 -48 0
v -176 -48 0
v -160 -48 0
v -144 -48 0
v -128 -48 0
v -112 -48 0
v -96 -48 0
v -80 -48 0
v -64 -48 0
v -48 -48 0
v -32 -48 0
v -16 -48 0
v 0 -48 0
v -288 -64 0
v -304 -64 0
v -272 -64 0
v -256 -64 0
v -240 -64 0
v -224 -64 0
v -208 -64 0
v -192 -64 0
v -176 -64 0
v -160 -64 0
v -144 -64 0
v -128 -64 0
v -112 -64 0
v -96 -64 0
v -80 -64 0
v -64 -64 0
v -48 -64 0
v -32 -64 0
v -16 -64 0
v 0 -64 0
v -288 -80 0
v -304 -80 0
v -272 -80 0
v -256 -80 0
v -240 -80 0
v -224 -80 0
v -208 -80 0
v -192 -80 0
v -176 -80 0
v -160 -80 0
v -144 -80 0
v -128 -80 0
v -112 -80 0
v -96 -80 0
v -80 -80 0
v -64 -80 0
v -48 -80 0
v -32 -80 0
v -16 -80 0
v 0 -80 0
v -288 -96 0
v -304 -96 0
v -272 -96 0
v -256 -96 0
v -240 -96 0
v -224 -96 0
v -208 -96 0
v -192 -96 0
v -176 -96 0
v -160 -96 0
v -144 -96 0
v -128 -96 0
v -112 -96 0
v -96 -96 0
v -80 -96 0
v -64 -96 0
v -48 -96 0
v -32 -96 0
v -16 -96 0
v 0 -96 0
v -288 -112 0
v -304 -112 0
v -272 -112 0
v -256 -112 0
v -240 -112 0
v -224 -112 0
v -208 -112 0
v -192 -112 0
v -176 -112 0
v -160 -112 0
v -144 -112 0
v -128 -112 0
v -112 -112 0
v -96 -112 0
v -80 -112 0
v -64 -112 0
v -48 -112 0
v -32 -112 0
v -16 -112 0
v 0 -112 0
v -288 -128 0
v -304 -128 0
v -272 -128 0
v -256 -128 0
v -240 -128 0
v -224 -128 0
v -208 -128 0
v -192 -128 0
v -176 -128 0
v -160 -128 0
v -144 -128 0
v -128 -128 0
v -112 -128 0
v -96 -128 0
v -80 -128 0
v -64 -128 0
v -48 -128 0
v -32 -128 0
v -16 -128 0
v 0 -128 0
v -288 -144 0
v -304 -144 0
v -272 -144 0
v -256 -144 0
v -240 -144 0
v -224 -144 0
v -208 -144 0
v -192 -144 0
v -176 -144 0
v -160 -144 0
v -144 -144 0
v -128 -144 0
v -112 -144 0
v -96 -144 0
v -80 -144 0
v -64 -144 0
v -48 -144 0
v -32 -144 0
v -16 -144 0
v 0 -144 0
v -288 -160 0
v -304 -160 0
v -272 -160 0
v -256 -160 0
v -240 -160 0
v -224 -160 0
v -208 -160 0
v -192 -160 0
v -176 -160 0
v -160 -160 0
v -144 -160 0
v -128 -160 0
v -112 -160 0
v -96 -160 0
v -80 -160 0
v -64 -160 0
v -48 -160 0
v -32 -160 0
v -16 -160 0
v 0 -160 0
v -288 -176 0
v -304 -176 0
v -272 -176 0
v -256 -176 0
v -240 -176 0
v -224 -176 0
v -208 -176 0
v -192 -176 0
v -176 -176 0
v -160 -176 0
v -144 -176 0
v -128 -176 0
v -112 -176 0
v -96 -176 0
v -80 -176 0
v -64 -176 0
v -48 -176 0
v -32 -176 0
v -16 -176 0
v 0 -176 0

# Texture cooridinates (Count = 8)
vt 0.08781193 0.9372661
vt 0.1043368 0.9372661
vt 0.1043368 0.9676769
vt 0.08781193 0.9676769
vt 0.08781193 0.9695855
vt 0.1043368 0.9695855
vt 0.1043368 0.9999963
vt 0.08781193 0.9999963

# Normal
vn 0 0 -1

# Groups (Count = 1)

g mesh_0001
f 1/1/1 2/2/1 3/3/1 4/4/1
f 5/5/1 1/6/1 4/7/1 6/8/1
f 7/1/1 5/2/1 6/3/1 8/4/1
f 9/1/1 7/2/1 8/3/1 10/4/1
f 11/5/1 9/6/1 10/7/1 12/8/1
f 13/5/1 11/6/1 12/7/1 14/8/1
f 15/5/1 13/6/1 14/7/1 16/8/1
f 17/5/1 15/6/1 16/7/1 18/8/1
f 19/1/1 17/2/1 18/3/1 20/4/1
f 21/1/1 19/2/1 20/3/1 22/4/1
f 23/1/1 21/2/1 22/3/1 24/4/1
f 25/5/1 23/6/1 24/7/1 26/8/1
f 27/5/1 25/6/1 26/7/1 28/8/1
f 29/1/1 27/2/1 28/3/1 30/4/1
f 31/5/1 29/6/1 30/7/1 32/8/1
f 33/5/1 31/6/1 32/7/1 34/8/1
f 35/1/1 33/2/1 34/3/1 36/4/1
f 37/1/1 35/2/1 36/3/1 38/4/1
f 39/5/1 37/6/1 38/7/1 40/8/1
f 41/5/1 42/6/1 2/7/1 1/8/1
f 43/1/1 41/2/1 1/3/1 5/4/1
f 44/5/1 43/6/1 5/7/1 7/8/1
f 45/5/1 44/6/1 7/7/1 9/8/1
f 46/5/1 45/6/1 9/7/1 11/8/1
f 47/5/1 46/6/1 11/7/1 13/8/1
f 48/1/1 47/2/1 13/3/1 15/4/1
f 49/1/1 48/2/1 15/3/1 17/4/1
f 50/1/1 49/2/1 17/3/1 19/4/1
f 51/5/1 50/6/1 19/7/1 21/8/1
f 52/5/1 51/6/1 21/7/1 23/8/1
f 53/1/1 52/2/1 23/3/1 25/4/1
f 54/1/1 53/2/1 25/3/1 27/4/1
f 55/5/1 54/6/1 27/7/1 29/8/1
f 56/1/1 55/2/1 29/3/1 31/4/1
f 57/5/1 56/6/1 31/7/1 33/8/1
f 58/5/1 57/6/1 33/7/1 35/8/1
f 59/5/1 58/6/1 35/7/1 37/8/1
f 60/5/1 59/6/1 37/7/1 39/8/1
f 61/5/1 62/6/1 42/7/1 41/8/1
f 63/5/1 61/6/1 41/7/1 43/8/1
f 64/1/1 63/2/1 43/3/1 44/4/1
f 65/5/1 64/6/1 44/7/1 45/8/1
f 66/5/1 65/6/1 45/7/1 46/8/1
f 67/5/1 66/6/1 46/7/1 47/8/1
f 68/1/1 67/2/1 47/3/1 48/4/1
f 69/1/1 68/2/1 48/3/1 49/4/1
f 70/5/1 69/6/1 49/7/1 50/8/1
f 71/1/1 70/2/1 50/3/1 51/4/1
f 72/1/1 71/2/1 51/3/1 52/4/1
f 73/5/1 72/6/1 52/7/1 53/8/1
f 74/5/1 73/6/1 53/7/1 54/8/1
f 75/5/1 74/6/1 54/7/1 55/8/1
f 76/1/1 75/2/1 55/3/1 56/4/1
f 77/5/1 76/6/1 56/7/1 57/8/1
f 78/5/1 77/6/1 57/7/1 58/8/1
f 79/5/1 78/6/1 58/7/1 59/8/1
f 80/1/1 79/2/1 59/3/1 60/4/1
f 81/5/1 82/6/1 62/7/1 61/8/1
f 83/1/1 81/2/1 61/3/1 63/4/1
f 84/5/1 83/6/1 63/7/1 64/8/1
f 85/1/1 84/2/1 64/3/1 65/4/1
f 86/1/1 85/2/1 65/3/1 66/4/1
f 87/1/1 86/2/1 66/3/1 67/4/1
f 88/5/1 87/6/1 67/7/1 68/8/1
f 89/1/1 88/2/1 68/3/1 69/4/1
f 90/1/1 89/2/1 69/3/1 70/4/1
f 91/5/1 90/6/1 70/7/1 71/8/1
f 92/5/1 91/6/1 71/7/1 72/8/1
f 93/5/1 92/6/1 72/7/1 73/8/1
f 94/5/1 93/6/1 73/7/1 74/8/1
f 95/1/1 94/2/1 74/3/1 75/4/1
f 96/1/1 95/2/1 75/3/1 76/4/1
f 97/1/1 96/2/1 76/3/1 77/4/1
f 98/1/1 97/2/1 77/3/1 78/4/1
f 99/5/1 98/6/1 78/7/1 79/8/1
f 100/5/1 99/6/1 79/7/1 80/8/1
f 101/1/1 102/2/1 82/3/1 81/4/1
f 103/5/1 101/6/1 81/7/1 83/8/1
f 104/1/1 103/2/1 83/3/1 84/4/1
f 105/5/1 104/6/1 84/7/1 85/8/1
f 106/5/1 105/6/1 85/7/1 86/8/1
f 107/1/1 106/2/1 86/3/1 87/4/1
f 108/5/1 107/6/1 87/7/1 88/8/1
f 109/5/1 108/6/1 88/7/1 89/8/1
f 110/5/1 109/6/1 89/7/1 90/8/1
f 111/1/1 110/2/1 90/3/1 91/4/1
f 112/5/1 111/6/1 91/7/1 92/8/1
f 113/5/1 112/6/1 92/7/1 93/8/1
f 114/5/1 113/6/1 93/7/1 94/8/1
f 115/5/1 114/6/1 94/7/1 95/8/1
f 116/5/1 115/6/1 95/7/1 96/8/1
f 117/5/1 116/6/1 96/7/1 97/8/1
f 118/1/1 117/2/1 97/3/1 98/4/1
f 119/1/1 118/2/1 98/3/1 99/4/1
f 120/1/1 119/2/1 99/3/1 100/4/1
f 121/1/1 122/2/1 102/3/1 101/4/1
f 123/1/1 121/2/1 101/3/1 103/4/1
f 124/1/1 123/2/1 103/3/1 104/4/1
f 125/1/1 124/2/1 104/3/1 105/4/1
f 126/5/1 125/6/1 105/7/1 106/8/1
f 127/5/1 126/6/1 106/7/1 107/8/1
f 128/5/1 127/6/1 107/7/1 108/8/1
f 129/5/1 128/6/1 108/7/1 109/8/1
f 130/5/1 129/6/1 109/7/1 110/8/1
f 131/1/1 130/2/1 110/3/1 111/4/1
f 132/1/1 131/2/1 111/3/1 112/4/1
f 133/5/1 132/6/1 112/7/1 113/8/1
f 134/5/1 133/6/1 113/7/1 114/8/1
f 135/5/1 134/6/1 114/7/1 115/8/1
f 136/1/1 135/2/1 115/3/1 116/4/1
f 137/5/1 136/6/1 116/7/1 117/8/1
f 138/5/1 137/6/1 117/7/1 118/8/1
f 139/5/1 138/6/1 118/7/1 119/8/1
f 140/5/1 139/6/1 119/7/1 120/8/1
f 141/5/1 142/6/1 122/7/1 121/8/1
f 143/5/1 141/6/1 121/7/1 123/8/1
f 144/5/1 143/6/1 123/7/1 124/8/1
f 145/1/1 144/2/1 124/3/1 125/4/1
f 146/1/1 145/2/1 125/3/1 126/4/1
f 147/1/1 146/2/1 126/3/1 127/4/1
f 148/5/1 147/6/1 127/7/1 128/8/1
f 149/5/1 148/6/1 128/7/1 129/8/1
f 150/5/1 149/6/1 129/7/1 130/8/1
f 151/1/1 150/2/1 130/3/1 131/4/1
f 152/1/1 151/2/1 131/3/1 132/4/1
f 153/5/1 152/6/1 132/7/1 133/8/1
f 154/5/1 153/6/1 133/7/1 134/8/1
f 155/5/1 154/6/1 134/7/1 135/8/1
f 156/5/1 155/6/1 135/7/1 136/8/1
f 157/1/1 156/2/1 136/3/1 137/4/1
f 158/1/1 157/2/1 137/3/1 138/4/1
f 159/1/1 158/2/1 138/3/1 139/4/1
f 160/5/1 159/6/1 139/7/1 140/8/1
f 161/1/1 162/2/1 142/3/1 141/4/1
f 163/1/1 161/2/1 141/3/1 143/4/1
f 164/1/1 163/2/1 143/3/1 144/4/1
f 165/5/1 164/6/1 144/7/1 145/8/1
f 166/1/1 165/2/1 145/3/1 146/4/1
f 167/1/1 166/2/1 146/3/1 147/4/1
f 168/1/1 167/2/1 147/3/1 148/4/1
f 169/1/1 168/2/1 148/3/1 149/4/1
f 170/5/1 169/6/1 149/7/1 150/8/1
f 171/1/1 170/2/1 150/3/1 151/4/1
f 172/1/1 171/2/1 151/3/1 152/4/1
f 173/1/1 172/2/1 152/3/1 153/4/1
f 174/5/1 173/6/1 153/7/1 154/8/1
f 175/5/1 174/6/1 154/7/1 155/8/1
f 176/1/1 175/2/1 155/3/1 156/4/1
f 177/5/1 176/6/1 156/7/1 157/8/1
f 178/1/1 177/2/1 157/3/1 158/4/1
f 179/1/1 178/2/1 158/3/1 159/4/1
f 180/1/1 179/2/1 159/3/1 160/4/1
f 181/5/1 182/6/1 162/7/1 161/8/1
f 183/5/1 181/6/1 161/7/1 163/8/1
f 184/1/1 183/2/1 163/3/1 164/4/1
f 185/5/1 184/6/1 164/7/1 165/8/1
f 186/1/1 185/2/1 165/3/1 166/4/1
f 187/1/1 186/2/1 166/3/1 167/4/1
f 188/5/1 187/6/1 167/7/1 168/8/1
f 189/5/1 188/6/1 168/7/1 169/8/1
f 190/1/1 189/2/1 169/3/1 170/4/1
f 191/1/1 190/2/1 170/3/1 171/4/1
f 192/1/1 191/2/1 171/3/1 172/4/1
f 193/5/1 192/6/1 172/7/1 173/8/1
f 194/5/1 193/6/1 173/7/1 174/8/1
f 195/1/1 194/2/1 174/3/1 175/4/1
f 196/1/1 195/2/1 175/3/1 176/4/1
f 197/1/1 196/2/1 176/3/1 177/4/1
f 198/1/1 197/2/1 177/3/1 178/4/1
f 199/5/1 198/6/1 178/7/1 179/8/1
f 200/1/1 199/2/1 179/3/1 180/4/1
f 201/5/1 202/6/1 182/7/1 181/8/1
f 203/5/1 201/6/1 181/7/1 183/8/1
f 204/5/1 203/6/1 183/7/1 184/8/1
f 205/1/1 204/2/1 184/3/1 185/4/1
f 206/5/1 205/6/1 185/7/1 186/8/1
f 207/5/1 206/6/1 186/7/1 187/8/1
f 208/5/1 207/6/1 187/7/1 188/8/1
f 209/1/1 208/2/1 188/3/1 189/4/1
f 210/5/1 209/6/1 189/7/1 190/8/1
f 211/5/1 210/6/1 190/7/1 191/8/1
f 212/5/1 211/6/1 191/7/1 192/8/1
f 213/1/1 212/2/1 192/3/1 193/4/1
f 214/1/1 213/2/1 193/3/1 194/4/1
f 215/5/1 214/6/1 194/7/1 195/8/1
f 216/1/1 215/2/1 195/3/1 196/4/1
f 217/1/1 216/2/1 196/3/1 197/4/1
f 218/1/1 217/2/1 197/3/1 198/4/1
f 219/5/1 218/6/1 198/7/1 199/8/1
f 220/1/1 219/2/1 199/3/1 200/4/1
f 221/1/1 222/2/1 202/3/1 201/4/1
f 223/5/1 221/6/1 201/7/1 203/8/1
f 224/1/1 223/2/1 203/3/1 204/4/1
f 225/5/1 224/6/1 204/7/1 205/8/1
f 226/1/1 225/2/1 205/3/1 206/4/1
f 227/5/1 226/6/1 206/7/1 207/8/1
f 228/1/1 227/2/1 207/3/1 208/4/1
f 229/5/1 228/6/1 208/7/1 209/8/1
f 230/5/1 229/6/1 209/7/1 210/8/1
f 231/5/1 230/6/1 210/7/1 211/8/1
f 232/5/1 231/6/1 211/7/1 212/8/1
f 233/1/1 232/2/1 212/3/1 213/4/1
f 234/5/1 233/6/1 213/7/1 214/8/1
f 235/5/1 234/6/1 214/7/1 215/8/1
f 236/1/1 235/2/1 215/3/1 216/4/1
f 237/1/1 236/2/1 216/3/1 217/4/1
f 238/5/1 237/6/1 217/7/1 218/8/1
f 239/5/1 238/6/1 218/7/1 219/8/1
f 240/1/1 239/2/1 219/3/1 220/4/1

