# Tiled2Unity generated file. Do not modify by hand.
# Wavefront file for 'Test_mesh_0002.obj'

# Vertices (Count = 48)
v -144 -16 0
v -176 -16 0
v -176 16 0
v -144 16 0
v -128 -16 0
v -160 -16 0
v -160 16 0
v -128 16 0
v -112 -16 0
v -144 -16 0
v -144 16 0
v -112 16 0
v -96 -16 0
v -128 -16 0
v -128 16 0
v -96 16 0
v -144 -32 0
v -176 -32 0
v -176 0 0
v -144 0 0
v -128 -32 0
v -160 -32 0
v -160 0 0
v -128 0 0
v -112 -32 0
v -144 -32 0
v -144 0 0
v -112 0 0
v -96 -32 0
v -128 -32 0
v -128 0 0
v -96 0 0
v -144 -48 0
v -176 -48 0
v -176 -16 0
v -144 -16 0
v -128 -48 0
v -160 -48 0
v -160 -16 0
v -128 -16 0
v -112 -48 0
v -144 -48 0
v -144 -16 0
v -112 -16 0
v -96 -48 0
v -128 -48 0
v -128 -16 0
v -96 -16 0

# Texture cooridinates (Count = 20)
vt 0.375 0.8571429
vt 0.5 0.8571429
vt 0.5 1
vt 0.375 1
vt 0.25 0.8571429
vt 0.25 1
vt 0.125 0.8571429
vt 0.125 1
vt 0 0.8571429
vt 0 1
vt 0.375 0.7142857
vt 0.5 0.7142857
vt 0.25 0.7142857
vt 0.125 0.7142857
vt 0 0.7142857
vt 0.375 0.5714285
vt 0.5 0.5714285
vt 0.25 0.5714285
vt 0.125 0.5714285
vt 0 0.5714285

# Normal
vn 0 0 -1

# Mesh description
g Test_mesh_0002

# Faces
f 1/1/1 2/2/1 3/3/1 4/4/1
f 5/5/1 6/1/1 7/4/1 8/6/1
f 9/7/1 10/5/1 11/6/1 12/8/1
f 13/9/1 14/7/1 15/8/1 16/10/1
f 17/11/1 18/12/1 19/2/1 20/1/1
f 21/13/1 22/11/1 23/1/1 24/5/1
f 25/14/1 26/13/1 27/5/1 28/7/1
f 29/15/1 30/14/1 31/7/1 32/9/1
f 33/16/1 34/17/1 35/12/1 36/11/1
f 37/18/1 38/16/1 39/11/1 40/13/1
f 41/19/1 42/18/1 43/13/1 44/14/1
f 45/20/1 46/19/1 47/14/1 48/15/1

