# Wavefront OBJ file automatically generated by Tiled2Unity

# Vertices (Count = 336)
v -304 -16 0
v -320 -16 0
v -320 0 0
v -304 0 0
v -288 -16 0
v -288 0 0
v -272 -16 0
v -272 0 0
v -256 -16 0
v -256 0 0
v -240 -16 0
v -240 0 0
v -224 -16 0
v -224 0 0
v -208 -16 0
v -208 0 0
v -192 -16 0
v -192 0 0
v -176 -16 0
v -176 0 0
v -160 -16 0
v -160 0 0
v -144 -16 0
v -144 0 0
v -128 -16 0
v -128 0 0
v -112 -16 0
v -112 0 0
v -96 -16 0
v -96 0 0
v -80 -16 0
v -80 0 0
v -64 -16 0
v -64 0 0
v -48 -16 0
v -48 0 0
v -32 -16 0
v -32 0 0
v -16 -16 0
v -16 0 0
v 0 -16 0
v 0 0 0
v -304 -32 0
v -320 -32 0
v -288 -32 0
v -272 -32 0
v -256 -32 0
v -240 -32 0
v -224 -32 0
v -208 -32 0
v -192 -32 0
v -176 -32 0
v -160 -32 0
v -144 -32 0
v -128 -32 0
v -112 -32 0
v -96 -32 0
v -80 -32 0
v -64 -32 0
v -48 -32 0
v -32 -32 0
v -16 -32 0
v 0 -32 0
v -304 -48 0
v -320 -48 0
v -288 -48 0
v -272 -48 0
v -256 -48 0
v -240 -48 0
v -224 -48 0
v -208 -48 0
v -192 -48 0
v -176 -48 0
v -160 -48 0
v -144 -48 0
v -128 -48 0
v -112 -48 0
v -96 -48 0
v -80 -48 0
v -64 -48 0
v -48 -48 0
v -32 -48 0
v -16 -48 0
v 0 -48 0
v -304 -64 0
v -320 -64 0
v -288 -64 0
v -272 -64 0
v -256 -64 0
v -240 -64 0
v -224 -64 0
v -208 -64 0
v -192 -64 0
v -176 -64 0
v -160 -64 0
v -144 -64 0
v -128 -64 0
v -112 -64 0
v -96 -64 0
v -80 -64 0
v -64 -64 0
v -48 -64 0
v -32 -64 0
v -16 -64 0
v 0 -64 0
v -304 -80 0
v -320 -80 0
v -288 -80 0
v -272 -80 0
v -256 -80 0
v -240 -80 0
v -224 -80 0
v -208 -80 0
v -192 -80 0
v -176 -80 0
v -160 -80 0
v -144 -80 0
v -128 -80 0
v -112 -80 0
v -96 -80 0
v -80 -80 0
v -64 -80 0
v -48 -80 0
v -32 -80 0
v -16 -80 0
v 0 -80 0
v -304 -96 0
v -320 -96 0
v -288 -96 0
v -272 -96 0
v -256 -96 0
v -240 -96 0
v -224 -96 0
v -208 -96 0
v -192 -96 0
v -176 -96 0
v -160 -96 0
v -144 -96 0
v -128 -96 0
v -112 -96 0
v -96 -96 0
v -80 -96 0
v -64 -96 0
v -48 -96 0
v -32 -96 0
v -16 -96 0
v 0 -96 0
v -304 -112 0
v -320 -112 0
v -288 -112 0
v -272 -112 0
v -256 -112 0
v -240 -112 0
v -224 -112 0
v -208 -112 0
v -192 -112 0
v -176 -112 0
v -160 -112 0
v -144 -112 0
v -128 -112 0
v -112 -112 0
v -96 -112 0
v -80 -112 0
v -64 -112 0
v -48 -112 0
v -32 -112 0
v -16 -112 0
v 0 -112 0
v -304 -128 0
v -320 -128 0
v -288 -128 0
v -272 -128 0
v -256 -128 0
v -240 -128 0
v -224 -128 0
v -208 -128 0
v -192 -128 0
v -176 -128 0
v -160 -128 0
v -144 -128 0
v -128 -128 0
v -112 -128 0
v -96 -128 0
v -80 -128 0
v -64 -128 0
v -48 -128 0
v -32 -128 0
v -16 -128 0
v 0 -128 0
v -304 -144 0
v -320 -144 0
v -288 -144 0
v -272 -144 0
v -256 -144 0
v -240 -144 0
v -224 -144 0
v -208 -144 0
v -192 -144 0
v -176 -144 0
v -160 -144 0
v -144 -144 0
v -128 -144 0
v -112 -144 0
v -96 -144 0
v -80 -144 0
v -64 -144 0
v -48 -144 0
v -32 -144 0
v -16 -144 0
v 0 -144 0
v -304 -160 0
v -320 -160 0
v -288 -160 0
v -272 -160 0
v -256 -160 0
v -240 -160 0
v -224 -160 0
v -208 -160 0
v -192 -160 0
v -176 -160 0
v -160 -160 0
v -144 -160 0
v -128 -160 0
v -112 -160 0
v -96 -160 0
v -80 -160 0
v -64 -160 0
v -48 -160 0
v -32 -160 0
v -16 -160 0
v 0 -160 0
v -304 -176 0
v -320 -176 0
v -288 -176 0
v -272 -176 0
v -256 -176 0
v -240 -176 0
v -224 -176 0
v -208 -176 0
v -192 -176 0
v -176 -176 0
v -160 -176 0
v -144 -176 0
v -128 -176 0
v -112 -176 0
v -96 -176 0
v -80 -176 0
v -64 -176 0
v -48 -176 0
v -32 -176 0
v -16 -176 0
v 0 -176 0
v -304 -192 0
v -320 -192 0
v -288 -192 0
v -272 -192 0
v -256 -192 0
v -240 -192 0
v -224 -192 0
v -208 -192 0
v -192 -192 0
v -176 -192 0
v -160 -192 0
v -144 -192 0
v -128 -192 0
v -112 -192 0
v -96 -192 0
v -80 -192 0
v -64 -192 0
v -48 -192 0
v -32 -192 0
v -16 -192 0
v 0 -192 0
v -304 -208 0
v -320 -208 0
v -288 -208 0
v -272 -208 0
v -256 -208 0
v -240 -208 0
v -224 -208 0
v -208 -208 0
v -192 -208 0
v -176 -208 0
v -160 -208 0
v -144 -208 0
v -128 -208 0
v -112 -208 0
v -96 -208 0
v -80 -208 0
v -64 -208 0
v -48 -208 0
v -32 -208 0
v -16 -208 0
v 0 -208 0
v -304 -224 0
v -320 -224 0
v -288 -224 0
v -272 -224 0
v -256 -224 0
v -240 -224 0
v -224 -224 0
v -208 -224 0
v -192 -224 0
v -176 -224 0
v -160 -224 0
v -144 -224 0
v -128 -224 0
v -112 -224 0
v -96 -224 0
v -80 -224 0
v -64 -224 0
v -48 -224 0
v -32 -224 0
v -16 -224 0
v 0 -224 0
v -304 -240 0
v -320 -240 0
v -288 -240 0
v -272 -240 0
v -256 -240 0
v -240 -240 0
v -224 -240 0
v -208 -240 0
v -192 -240 0
v -176 -240 0
v -160 -240 0
v -144 -240 0
v -128 -240 0
v -112 -240 0
v -96 -240 0
v -80 -240 0
v -64 -240 0
v -48 -240 0
v -32 -240 0
v -16 -240 0
v 0 -240 0

# Texture cooridinates (Count = 144)
vt 0.1404979 0.1616006
vt 0.1570228 0.1616006
vt 0.1570228 0.1920115
vt 0.1404979 0.1920115
vt 0.1229359 0.1616006
vt 0.1394608 0.1616006
vt 0.1394608 0.1920115
vt 0.1229359 0.1920115
vt 0.1053739 0.1616006
vt 0.1218988 0.1616006
vt 0.1218988 0.1920115
vt 0.1053739 0.1920115
vt 0.1404979 0.1292813
vt 0.1570228 0.1292813
vt 0.1570228 0.1596921
vt 0.1404979 0.1596921
vt 0.1229359 0.1292813
vt 0.1394608 0.1292813
vt 0.1394608 0.1596921
vt 0.1229359 0.1596921
vt 0.1053739 0.1292813
vt 0.1218988 0.1292813
vt 0.1218988 0.1596921
vt 0.1053739 0.1596921
vt 0.5619855 0.4847946
vt 0.5785104 0.4847946
vt 0.5785104 0.5152054
vt 0.5619855 0.5152054
vt 0.5619855 0.2908782
vt 0.5785104 0.2908782
vt 0.5785104 0.3212891
vt 0.5619855 0.3212891
vt 0.3161177 0.2908782
vt 0.3326426 0.2908782
vt 0.3326426 0.3212891
vt 0.3161177 0.3212891
vt 0.5619855 0.2262394
vt 0.5785104 0.2262394
vt 0.5785104 0.2566503
vt 0.5619855 0.2566503
vt 0.2985557 0.1616006
vt 0.3150806 0.1616006
vt 0.3150806 0.1920115
vt 0.2985557 0.1920115
vt 0.2809938 0.1616006
vt 0.2975186 0.1616006
vt 0.2975186 0.1920115
vt 0.2809938 0.1920115
vt 0.2634318 0.1616006
vt 0.2799567 0.1616006
vt 0.2799567 0.1920115
vt 0.2634318 0.1920115
vt 0.2809938 0.1292813
vt 0.2975186 0.1292813
vt 0.2975186 0.1596921
vt 0.2809938 0.1596921
vt 0.2634318 0.1292813
vt 0.2799567 0.1292813
vt 0.2799567 0.1596921
vt 0.2634318 0.1596921
vt 0.2985557 0.1292813
vt 0.3150806 0.1292813
vt 0.3150806 0.1596921
vt 0.2985557 0.1596921
vt 0.2985557 0.09696192
vt 0.3150806 0.09696192
vt 0.3150806 0.1273727
vt 0.2985557 0.1273727
vt 0.2809938 0.09696192
vt 0.2975186 0.09696192
vt 0.2975186 0.1273727
vt 0.2809938 0.1273727
vt 0.2634318 0.09696192
vt 0.2799567 0.09696192
vt 0.2799567 0.1273727
vt 0.2634318 0.1273727
vt 0.5444235 0.8403079
vt 0.5609484 0.8403079
vt 0.5609484 0.8707187
vt 0.5444235 0.8707187
vt 0.5444235 0.9049467
vt 0.5609484 0.9049467
vt 0.5609484 0.9353575
vt 0.5444235 0.9353575
vt 0.5268615 0.9049467
vt 0.5433864 0.9049467
vt 0.5433864 0.9353575
vt 0.5268615 0.9353575
vt 0.5444235 0.8726273
vt 0.5609484 0.8726273
vt 0.5609484 0.9030381
vt 0.5444235 0.9030381
vt 0.9483491 0.6787109
vt 0.964874 0.6787109
vt 0.964874 0.7091218
vt 0.9483491 0.7091218
vt 0.9483491 0.9695855
vt 0.964874 0.9695855
vt 0.964874 0.9999963
vt 0.9483491 0.9999963
vt 0.4917375 0.9372661
vt 0.5082625 0.9372661
vt 0.5082625 0.9676769
vt 0.4917375 0.9676769
vt 0.9483491 0.9372661
vt 0.964874 0.9372661
vt 0.964874 0.9676769
vt 0.9483491 0.9676769
vt 0.4741756 0.9372661
vt 0.4907005 0.9372661
vt 0.4907005 0.9676769
vt 0.4741756 0.9676769
vt 0.3512417 0.8726273
vt 0.3677666 0.8726273
vt 0.3677666 0.9030381
vt 0.3512417 0.9030381
vt 0.3336797 0.8079885
vt 0.3502046 0.8079885
vt 0.3502046 0.8383994
vt 0.3336797 0.8383994
vt 0.3863657 0.7756691
vt 0.4028905 0.7756691
vt 0.4028905 0.8060799
vt 0.3863657 0.8060799
vt 0.3863657 0.8079885
vt 0.4028905 0.8079885
vt 0.4028905 0.8383994
vt 0.3863657 0.8383994
vt 0.3688037 0.8079885
vt 0.3853286 0.8079885
vt 0.3853286 0.8383994
vt 0.3688037 0.8383994
vt 0.3512417 0.8079885
vt 0.3677666 0.8079885
vt 0.3677666 0.8383994
vt 0.3512417 0.8383994
vt 0.2107458 0.5494334
vt 0.2272707 0.5494334
vt 0.2272707 0.5798442
vt 0.2107458 0.5798442
vt 0.1756219 0.5494334
vt 0.1921467 0.5494334
vt 0.1921467 0.5798442
vt 0.1756219 0.5798442

# Normal
vn 0 0 -1

# Groups (Count = 2)

g mesh_0001
f 1/1/1 2/2/1 3/3/1 4/4/1
f 5/5/1 1/6/1 4/7/1 6/8/1
f 7/5/1 5/6/1 6/7/1 8/8/1
f 9/5/1 7/6/1 8/7/1 10/8/1
f 11/5/1 9/6/1 10/7/1 12/8/1
f 13/5/1 11/6/1 12/7/1 14/8/1
f 15/5/1 13/6/1 14/7/1 16/8/1
f 17/5/1 15/6/1 16/7/1 18/8/1
f 19/5/1 17/6/1 18/7/1 20/8/1
f 21/5/1 19/6/1 20/7/1 22/8/1
f 23/5/1 21/6/1 22/7/1 24/8/1
f 25/5/1 23/6/1 24/7/1 26/8/1
f 27/5/1 25/6/1 26/7/1 28/8/1
f 29/5/1 27/6/1 28/7/1 30/8/1
f 31/5/1 29/6/1 30/7/1 32/8/1
f 33/5/1 31/6/1 32/7/1 34/8/1
f 35/5/1 33/6/1 34/7/1 36/8/1
f 37/5/1 35/6/1 36/7/1 38/8/1
f 39/5/1 37/6/1 38/7/1 40/8/1
f 41/9/1 39/10/1 40/11/1 42/12/1
f 43/13/1 44/14/1 2/15/1 1/16/1
f 45/17/1 43/18/1 1/19/1 5/20/1
f 46/17/1 45/18/1 5/19/1 7/20/1
f 47/17/1 46/18/1 7/19/1 9/20/1
f 48/17/1 47/18/1 9/19/1 11/20/1
f 49/17/1 48/18/1 11/19/1 13/20/1
f 50/17/1 49/18/1 13/19/1 15/20/1
f 51/17/1 50/18/1 15/19/1 17/20/1
f 52/17/1 51/18/1 17/19/1 19/20/1
f 53/17/1 52/18/1 19/19/1 21/20/1
f 54/17/1 53/18/1 21/19/1 23/20/1
f 55/17/1 54/18/1 23/19/1 25/20/1
f 56/17/1 55/18/1 25/19/1 27/20/1
f 57/17/1 56/18/1 27/19/1 29/20/1
f 58/17/1 57/18/1 29/19/1 31/20/1
f 59/17/1 58/18/1 31/19/1 33/20/1
f 60/17/1 59/18/1 33/19/1 35/20/1
f 61/17/1 60/18/1 35/19/1 37/20/1
f 62/17/1 61/18/1 37/19/1 39/20/1
f 63/21/1 62/22/1 39/23/1 41/24/1
f 64/13/1 65/14/1 44/15/1 43/16/1
f 66/25/1 64/26/1 43/27/1 45/28/1
f 67/25/1 66/26/1 45/27/1 46/28/1
f 68/25/1 67/26/1 46/27/1 47/28/1
f 69/25/1 68/26/1 47/27/1 48/28/1
f 70/25/1 69/26/1 48/27/1 49/28/1
f 71/25/1 70/26/1 49/27/1 50/28/1
f 72/25/1 71/26/1 50/27/1 51/28/1
f 73/25/1 72/26/1 51/27/1 52/28/1
f 74/25/1 73/26/1 52/27/1 53/28/1
f 75/17/1 74/18/1 53/19/1 54/20/1
f 76/17/1 75/18/1 54/19/1 55/20/1
f 77/17/1 76/18/1 55/19/1 56/20/1
f 78/17/1 77/18/1 56/19/1 57/20/1
f 79/17/1 78/18/1 57/19/1 58/20/1
f 80/17/1 79/18/1 58/19/1 59/20/1
f 81/17/1 80/18/1 59/19/1 60/20/1
f 82/17/1 81/18/1 60/19/1 61/20/1
f 83/17/1 82/18/1 61/19/1 62/20/1
f 84/21/1 83/22/1 62/23/1 63/24/1
f 85/13/1 86/14/1 65/15/1 64/16/1
f 87/25/1 85/26/1 64/27/1 66/28/1
f 88/25/1 87/26/1 66/27/1 67/28/1
f 89/25/1 88/26/1 67/27/1 68/28/1
f 90/25/1 89/26/1 68/27/1 69/28/1
f 91/25/1 90/26/1 69/27/1 70/28/1
f 92/25/1 91/26/1 70/27/1 71/28/1
f 93/25/1 92/26/1 71/27/1 72/28/1
f 94/25/1 93/26/1 72/27/1 73/28/1
f 95/25/1 94/26/1 73/27/1 74/28/1
f 96/17/1 95/18/1 74/19/1 75/20/1
f 97/17/1 96/18/1 75/19/1 76/20/1
f 98/17/1 97/18/1 76/19/1 77/20/1
f 99/17/1 98/18/1 77/19/1 78/20/1
f 100/29/1 99/30/1 78/31/1 79/32/1
f 101/17/1 100/18/1 79/19/1 80/20/1
f 102/17/1 101/18/1 80/19/1 81/20/1
f 103/17/1 102/18/1 81/19/1 82/20/1
f 104/17/1 103/18/1 82/19/1 83/20/1
f 105/21/1 104/22/1 83/23/1 84/24/1
f 106/13/1 107/14/1 86/15/1 85/16/1
f 108/33/1 106/34/1 85/35/1 87/36/1
f 109/33/1 108/34/1 87/35/1 88/36/1
f 110/33/1 109/34/1 88/35/1 89/36/1
f 111/33/1 110/34/1 89/35/1 90/36/1
f 112/33/1 111/34/1 90/35/1 91/36/1
f 113/33/1 112/34/1 91/35/1 92/36/1
f 114/33/1 113/34/1 92/35/1 93/36/1
f 115/33/1 114/34/1 93/35/1 94/36/1
f 116/33/1 115/34/1 94/35/1 95/36/1
f 117/17/1 116/18/1 95/19/1 96/20/1
f 118/17/1 117/18/1 96/19/1 97/20/1
f 119/17/1 118/18/1 97/19/1 98/20/1
f 120/17/1 119/18/1 98/19/1 99/20/1
f 121/37/1 120/38/1 99/39/1 100/40/1
f 122/17/1 121/18/1 100/19/1 101/20/1
f 123/17/1 122/18/1 101/19/1 102/20/1
f 124/17/1 123/18/1 102/19/1 103/20/1
f 125/17/1 124/18/1 103/19/1 104/20/1
f 126/21/1 125/22/1 104/23/1 105/24/1
f 127/41/1 128/42/1 107/43/1 106/44/1
f 129/45/1 127/46/1 106/47/1 108/48/1
f 130/45/1 129/46/1 108/47/1 109/48/1
f 131/45/1 130/46/1 109/47/1 110/48/1
f 132/45/1 131/46/1 110/47/1 111/48/1
f 133/45/1 132/46/1 111/47/1 112/48/1
f 134/45/1 133/46/1 112/47/1 113/48/1
f 135/45/1 134/46/1 113/47/1 114/48/1
f 136/45/1 135/46/1 114/47/1 115/48/1
f 137/45/1 136/46/1 115/47/1 116/48/1
f 138/45/1 137/46/1 116/47/1 117/48/1
f 139/45/1 138/46/1 117/47/1 118/48/1
f 140/45/1 139/46/1 118/47/1 119/48/1
f 141/45/1 140/46/1 119/47/1 120/48/1
f 142/45/1 141/46/1 120/47/1 121/48/1
f 143/45/1 142/46/1 121/47/1 122/48/1
f 144/45/1 143/46/1 122/47/1 123/48/1
f 145/45/1 144/46/1 123/47/1 124/48/1
f 146/45/1 145/46/1 124/47/1 125/48/1
f 147/49/1 146/50/1 125/51/1 126/52/1
f 148/13/1 149/14/1 128/15/1 127/16/1
f 150/17/1 148/18/1 127/19/1 129/20/1
f 151/17/1 150/18/1 129/19/1 130/20/1
f 152/17/1 151/18/1 130/19/1 131/20/1
f 153/17/1 152/18/1 131/19/1 132/20/1
f 154/17/1 153/18/1 132/19/1 133/20/1
f 155/17/1 154/18/1 133/19/1 134/20/1
f 156/17/1 155/18/1 134/19/1 135/20/1
f 157/17/1 156/18/1 135/19/1 136/20/1
f 158/17/1 157/18/1 136/19/1 137/20/1
f 159/17/1 158/18/1 137/19/1 138/20/1
f 160/17/1 159/18/1 138/19/1 139/20/1
f 161/17/1 160/18/1 139/19/1 140/20/1
f 162/17/1 161/18/1 140/19/1 141/20/1
f 163/17/1 162/18/1 141/19/1 142/20/1
f 164/17/1 163/18/1 142/19/1 143/20/1
f 165/17/1 164/18/1 143/19/1 144/20/1
f 166/17/1 165/18/1 144/19/1 145/20/1
f 167/53/1 166/54/1 145/55/1 146/56/1
f 168/57/1 167/58/1 146/59/1 147/60/1
f 169/61/1 170/62/1 149/63/1 148/64/1
f 171/53/1 169/54/1 148/55/1 150/56/1
f 172/53/1 171/54/1 150/55/1 151/56/1
f 173/53/1 172/54/1 151/55/1 152/56/1
f 174/53/1 173/54/1 152/55/1 153/56/1
f 175/53/1 174/54/1 153/55/1 154/56/1
f 176/53/1 175/54/1 154/55/1 155/56/1
f 177/53/1 176/54/1 155/55/1 156/56/1
f 178/53/1 177/54/1 156/55/1 157/56/1
f 179/53/1 178/54/1 157/55/1 158/56/1
f 180/53/1 179/54/1 158/55/1 159/56/1
f 181/53/1 180/54/1 159/55/1 160/56/1
f 182/53/1 181/54/1 160/55/1 161/56/1
f 183/53/1 182/54/1 161/55/1 162/56/1
f 184/53/1 183/54/1 162/55/1 163/56/1
f 185/53/1 184/54/1 163/55/1 164/56/1
f 186/53/1 185/54/1 164/55/1 165/56/1
f 187/53/1 186/54/1 165/55/1 166/56/1
f 188/53/1 187/54/1 166/55/1 167/56/1
f 189/57/1 188/58/1 167/59/1 168/60/1
f 190/61/1 191/62/1 170/63/1 169/64/1
f 192/53/1 190/54/1 169/55/1 171/56/1
f 193/53/1 192/54/1 171/55/1 172/56/1
f 194/53/1 193/54/1 172/55/1 173/56/1
f 195/53/1 194/54/1 173/55/1 174/56/1
f 196/53/1 195/54/1 174/55/1 175/56/1
f 197/53/1 196/54/1 175/55/1 176/56/1
f 198/53/1 197/54/1 176/55/1 177/56/1
f 199/53/1 198/54/1 177/55/1 178/56/1
f 200/53/1 199/54/1 178/55/1 179/56/1
f 201/53/1 200/54/1 179/55/1 180/56/1
f 202/53/1 201/54/1 180/55/1 181/56/1
f 203/53/1 202/54/1 181/55/1 182/56/1
f 204/53/1 203/54/1 182/55/1 183/56/1
f 205/53/1 204/54/1 183/55/1 184/56/1
f 206/53/1 205/54/1 184/55/1 185/56/1
f 207/53/1 206/54/1 185/55/1 186/56/1
f 208/53/1 207/54/1 186/55/1 187/56/1
f 209/53/1 208/54/1 187/55/1 188/56/1
f 210/57/1 209/58/1 188/59/1 189/60/1
f 211/61/1 212/62/1 191/63/1 190/64/1
f 213/53/1 211/54/1 190/55/1 192/56/1
f 214/53/1 213/54/1 192/55/1 193/56/1
f 215/53/1 214/54/1 193/55/1 194/56/1
f 216/53/1 215/54/1 194/55/1 195/56/1
f 217/53/1 216/54/1 195/55/1 196/56/1
f 218/53/1 217/54/1 196/55/1 197/56/1
f 219/53/1 218/54/1 197/55/1 198/56/1
f 220/53/1 219/54/1 198/55/1 199/56/1
f 221/53/1 220/54/1 199/55/1 200/56/1
f 222/53/1 221/54/1 200/55/1 201/56/1
f 223/53/1 222/54/1 201/55/1 202/56/1
f 224/53/1 223/54/1 202/55/1 203/56/1
f 225/53/1 224/54/1 203/55/1 204/56/1
f 226/53/1 225/54/1 204/55/1 205/56/1
f 227/53/1 226/54/1 205/55/1 206/56/1
f 228/53/1 227/54/1 206/55/1 207/56/1
f 229/53/1 228/54/1 207/55/1 208/56/1
f 230/53/1 229/54/1 208/55/1 209/56/1
f 231/57/1 230/58/1 209/59/1 210/60/1
f 232/61/1 233/62/1 212/63/1 211/64/1
f 234/53/1 232/54/1 211/55/1 213/56/1
f 235/53/1 234/54/1 213/55/1 214/56/1
f 236/53/1 235/54/1 214/55/1 215/56/1
f 237/53/1 236/54/1 215/55/1 216/56/1
f 238/53/1 237/54/1 216/55/1 217/56/1
f 239/53/1 238/54/1 217/55/1 218/56/1
f 240/53/1 239/54/1 218/55/1 219/56/1
f 241/53/1 240/54/1 219/55/1 220/56/1
f 242/53/1 241/54/1 220/55/1 221/56/1
f 243/53/1 242/54/1 221/55/1 222/56/1
f 244/53/1 243/54/1 222/55/1 223/56/1
f 245/53/1 244/54/1 223/55/1 224/56/1
f 246/53/1 245/54/1 224/55/1 225/56/1
f 247/53/1 246/54/1 225/55/1 226/56/1
f 248/53/1 247/54/1 226/55/1 227/56/1
f 249/53/1 248/54/1 227/55/1 228/56/1
f 250/53/1 249/54/1 228/55/1 229/56/1
f 251/53/1 250/54/1 229/55/1 230/56/1
f 252/57/1 251/58/1 230/59/1 231/60/1
f 253/61/1 254/62/1 233/63/1 232/64/1
f 255/53/1 253/54/1 232/55/1 234/56/1
f 256/53/1 255/54/1 234/55/1 235/56/1
f 257/53/1 256/54/1 235/55/1 236/56/1
f 258/53/1 257/54/1 236/55/1 237/56/1
f 259/53/1 258/54/1 237/55/1 238/56/1
f 260/53/1 259/54/1 238/55/1 239/56/1
f 261/53/1 260/54/1 239/55/1 240/56/1
f 262/53/1 261/54/1 240/55/1 241/56/1
f 263/53/1 262/54/1 241/55/1 242/56/1
f 264/53/1 263/54/1 242/55/1 243/56/1
f 265/53/1 264/54/1 243/55/1 244/56/1
f 266/53/1 265/54/1 244/55/1 245/56/1
f 267/53/1 266/54/1 245/55/1 246/56/1
f 268/53/1 267/54/1 246/55/1 247/56/1
f 269/53/1 268/54/1 247/55/1 248/56/1
f 270/53/1 269/54/1 248/55/1 249/56/1
f 271/53/1 270/54/1 249/55/1 250/56/1
f 272/53/1 271/54/1 250/55/1 251/56/1
f 273/57/1 272/58/1 251/59/1 252/60/1
f 274/61/1 275/62/1 254/63/1 253/64/1
f 276/53/1 274/54/1 253/55/1 255/56/1
f 277/53/1 276/54/1 255/55/1 256/56/1
f 278/53/1 277/54/1 256/55/1 257/56/1
f 279/53/1 278/54/1 257/55/1 258/56/1
f 280/53/1 279/54/1 258/55/1 259/56/1
f 281/53/1 280/54/1 259/55/1 260/56/1
f 282/53/1 281/54/1 260/55/1 261/56/1
f 283/53/1 282/54/1 261/55/1 262/56/1
f 284/53/1 283/54/1 262/55/1 263/56/1
f 285/53/1 284/54/1 263/55/1 264/56/1
f 286/53/1 285/54/1 264/55/1 265/56/1
f 287/53/1 286/54/1 265/55/1 266/56/1
f 288/53/1 287/54/1 266/55/1 267/56/1
f 289/53/1 288/54/1 267/55/1 268/56/1
f 290/53/1 289/54/1 268/55/1 269/56/1
f 291/53/1 290/54/1 269/55/1 270/56/1
f 292/53/1 291/54/1 270/55/1 271/56/1
f 293/53/1 292/54/1 271/55/1 272/56/1
f 294/57/1 293/58/1 272/59/1 273/60/1
f 295/61/1 296/62/1 275/63/1 274/64/1
f 297/53/1 295/54/1 274/55/1 276/56/1
f 298/53/1 297/54/1 276/55/1 277/56/1
f 299/53/1 298/54/1 277/55/1 278/56/1
f 300/53/1 299/54/1 278/55/1 279/56/1
f 301/53/1 300/54/1 279/55/1 280/56/1
f 302/53/1 301/54/1 280/55/1 281/56/1
f 303/53/1 302/54/1 281/55/1 282/56/1
f 304/53/1 303/54/1 282/55/1 283/56/1
f 305/53/1 304/54/1 283/55/1 284/56/1
f 306/53/1 305/54/1 284/55/1 285/56/1
f 307/53/1 306/54/1 285/55/1 286/56/1
f 308/53/1 307/54/1 286/55/1 287/56/1
f 309/53/1 308/54/1 287/55/1 288/56/1
f 310/53/1 309/54/1 288/55/1 289/56/1
f 311/53/1 310/54/1 289/55/1 290/56/1
f 312/53/1 311/54/1 290/55/1 291/56/1
f 313/53/1 312/54/1 291/55/1 292/56/1
f 314/53/1 313/54/1 292/55/1 293/56/1
f 315/57/1 314/58/1 293/59/1 294/60/1
f 316/65/1 317/66/1 296/67/1 295/68/1
f 318/69/1 316/70/1 295/71/1 297/72/1
f 319/69/1 318/70/1 297/71/1 298/72/1
f 320/69/1 319/70/1 298/71/1 299/72/1
f 321/69/1 320/70/1 299/71/1 300/72/1
f 322/69/1 321/70/1 300/71/1 301/72/1
f 323/69/1 322/70/1 301/71/1 302/72/1
f 324/69/1 323/70/1 302/71/1 303/72/1
f 325/69/1 324/70/1 303/71/1 304/72/1
f 326/69/1 325/70/1 304/71/1 305/72/1
f 327/69/1 326/70/1 305/71/1 306/72/1
f 328/69/1 327/70/1 306/71/1 307/72/1
f 329/69/1 328/70/1 307/71/1 308/72/1
f 330/69/1 329/70/1 308/71/1 309/72/1
f 331/69/1 330/70/1 309/71/1 310/72/1
f 332/69/1 331/70/1 310/71/1 311/72/1
f 333/69/1 332/70/1 311/71/1 312/72/1
f 334/69/1 333/70/1 312/71/1 313/72/1
f 335/69/1 334/70/1 313/71/1 314/72/1
f 336/73/1 335/74/1 314/75/1 315/76/1

g mesh_0002
f 66/77/1 64/78/1 43/79/1 45/80/1
f 67/77/1 66/78/1 45/79/1 46/80/1
f 68/81/1 67/82/1 46/83/1 47/84/1
f 69/81/1 68/82/1 47/83/1 48/84/1
f 70/85/1 69/86/1 48/87/1 49/88/1
f 71/85/1 70/86/1 49/87/1 50/88/1
f 72/77/1 71/78/1 50/79/1 51/80/1
f 73/89/1 72/90/1 51/91/1 52/92/1
f 74/81/1 73/82/1 52/83/1 53/84/1
f 87/93/1 85/94/1 64/95/1 66/96/1
f 88/93/1 87/94/1 66/95/1 67/96/1
f 89/93/1 88/94/1 67/95/1 68/96/1
f 100/97/1 99/98/1 78/99/1 79/100/1
f 108/101/1 106/102/1 85/103/1 87/104/1
f 109/101/1 108/102/1 87/103/1 88/104/1
f 110/101/1 109/102/1 88/103/1 89/104/1
f 111/101/1 110/102/1 89/103/1 90/104/1
f 112/101/1 111/102/1 90/103/1 91/104/1
f 113/101/1 112/102/1 91/103/1 92/104/1
f 114/101/1 113/102/1 92/103/1 93/104/1
f 115/101/1 114/102/1 93/103/1 94/104/1
f 116/101/1 115/102/1 94/103/1 95/104/1
f 121/105/1 120/106/1 99/107/1 100/108/1
f 148/109/1 149/110/1 128/111/1 127/112/1
f 150/109/1 148/110/1 127/111/1 129/112/1
f 151/109/1 150/110/1 129/111/1 130/112/1
f 152/109/1 151/110/1 130/111/1 131/112/1
f 153/109/1 152/110/1 131/111/1 132/112/1
f 154/109/1 153/110/1 132/111/1 133/112/1
f 155/109/1 154/110/1 133/111/1 134/112/1
f 156/109/1 155/110/1 134/111/1 135/112/1
f 157/109/1 156/110/1 135/111/1 136/112/1
f 158/109/1 157/110/1 136/111/1 137/112/1
f 159/109/1 158/110/1 137/111/1 138/112/1
f 160/109/1 159/110/1 138/111/1 139/112/1
f 161/109/1 160/110/1 139/111/1 140/112/1
f 162/109/1 161/110/1 140/111/1 141/112/1
f 163/109/1 162/110/1 141/111/1 142/112/1
f 164/109/1 163/110/1 142/111/1 143/112/1
f 165/109/1 164/110/1 143/111/1 144/112/1
f 166/109/1 165/110/1 144/111/1 145/112/1
f 173/113/1 172/114/1 151/115/1 152/116/1
f 176/113/1 175/114/1 154/115/1 155/116/1
f 179/113/1 178/114/1 157/115/1 158/116/1
f 182/113/1 181/114/1 160/115/1 161/116/1
f 185/113/1 184/114/1 163/115/1 164/116/1
f 190/117/1 191/118/1 170/119/1 169/120/1
f 211/121/1 212/122/1 191/123/1 190/124/1
f 214/125/1 213/126/1 192/127/1 193/128/1
f 215/121/1 214/122/1 193/123/1 194/124/1
f 216/129/1 215/130/1 194/131/1 195/132/1
f 217/125/1 216/126/1 195/127/1 196/128/1
f 218/121/1 217/122/1 196/123/1 197/124/1
f 219/129/1 218/130/1 197/131/1 198/132/1
f 224/125/1 223/126/1 202/127/1 203/128/1
f 225/121/1 224/122/1 203/123/1 204/124/1
f 226/129/1 225/130/1 204/131/1 205/132/1
f 228/125/1 227/126/1 206/127/1 207/128/1
f 229/121/1 228/122/1 207/123/1 208/124/1
f 230/129/1 229/130/1 208/131/1 209/132/1
f 232/133/1 233/134/1 212/135/1 211/136/1
f 253/117/1 254/118/1 233/119/1 232/120/1
f 274/121/1 275/122/1 254/123/1 253/124/1
f 277/125/1 276/126/1 255/127/1 256/128/1
f 278/121/1 277/122/1 256/123/1 257/124/1
f 279/129/1 278/130/1 257/131/1 258/132/1
f 280/125/1 279/126/1 258/127/1 259/128/1
f 281/121/1 280/122/1 259/123/1 260/124/1
f 282/129/1 281/130/1 260/131/1 261/132/1
f 287/125/1 286/126/1 265/127/1 266/128/1
f 288/121/1 287/122/1 266/123/1 267/124/1
f 289/129/1 288/130/1 267/131/1 268/132/1
f 291/125/1 290/126/1 269/127/1 270/128/1
f 292/121/1 291/122/1 270/123/1 271/124/1
f 293/129/1 292/130/1 271/131/1 272/132/1
f 295/133/1 296/134/1 275/135/1 274/136/1
f 326/137/1 325/138/1 304/139/1 305/140/1
f 327/141/1 326/142/1 305/143/1 306/144/1

