# Tiled2Unity generated file. Do not modify by hand.
# Wavefront file for 'Treasury_mesh_0003.obj'

# Vertices (Count = 192)
v -144 -16 0
v -160 -16 0
v -160 0 0
v -144 0 0
v -96 -16 0
v -112 -16 0
v -112 0 0
v -96 0 0
v -48 -16 0
v -64 -16 0
v -64 0 0
v -48 0 0
v -272 -32 0
v -288 -32 0
v -288 -16 0
v -272 -16 0
v -144 -32 0
v -160 -32 0
v -160 -16 0
v -144 -16 0
v -96 -32 0
v -112 -32 0
v -112 -16 0
v -96 -16 0
v -48 -32 0
v -64 -32 0
v -64 -16 0
v -48 -16 0
v -144 -48 0
v -160 -48 0
v -160 -32 0
v -144 -32 0
v -96 -48 0
v -112 -48 0
v -112 -32 0
v -96 -32 0
v -48 -48 0
v -64 -48 0
v -64 -32 0
v -48 -32 0
v -288 -80 0
v -304 -80 0
v -304 -64 0
v -288 -64 0
v -272 -80 0
v -288 -80 0
v -288 -64 0
v -272 -64 0
v -256 -80 0
v -272 -80 0
v -272 -64 0
v -256 -64 0
v -240 -80 0
v -256 -80 0
v -256 -64 0
v -240 -64 0
v -224 -80 0
v -240 -80 0
v -240 -64 0
v -224 -64 0
v -208 -80 0
v -224 -80 0
v -224 -64 0
v -208 -64 0
v -192 -80 0
v -208 -80 0
v -208 -64 0
v -192 -64 0
v -176 -80 0
v -192 -80 0
v -192 -64 0
v -176 -64 0
v -160 -80 0
v -176 -80 0
v -176 -64 0
v -160 -64 0
v -144 -80 0
v -160 -80 0
v -160 -64 0
v -144 -64 0
v -128 -80 0
v -144 -80 0
v -144 -64 0
v -128 -64 0
v -112 -80 0
v -128 -80 0
v -128 -64 0
v -112 -64 0
v -96 -80 0
v -112 -80 0
v -112 -64 0
v -96 -64 0
v -80 -80 0
v -96 -80 0
v -96 -64 0
v -80 -64 0
v -64 -80 0
v -80 -80 0
v -80 -64 0
v -64 -64 0
v -48 -80 0
v -64 -80 0
v -64 -64 0
v -48 -64 0
v -32 -80 0
v -48 -80 0
v -48 -64 0
v -32 -64 0
v -16 -80 0
v -32 -80 0
v -32 -64 0
v -16 -64 0
v 0 -80 0
v -16 -80 0
v -16 -64 0
v 0 -64 0
v -288 -96 0
v -304 -96 0
v -304 -80 0
v -288 -80 0
v -272 -96 0
v -288 -96 0
v -288 -80 0
v -272 -80 0
v -256 -96 0
v -272 -96 0
v -272 -80 0
v -256 -80 0
v -240 -96 0
v -256 -96 0
v -256 -80 0
v -240 -80 0
v -224 -96 0
v -240 -96 0
v -240 -80 0
v -224 -80 0
v -208 -96 0
v -224 -96 0
v -224 -80 0
v -208 -80 0
v -192 -96 0
v -208 -96 0
v -208 -80 0
v -192 -80 0
v -176 -96 0
v -192 -96 0
v -192 -80 0
v -176 -80 0
v -160 -96 0
v -176 -96 0
v -176 -80 0
v -160 -80 0
v -144 -96 0
v -160 -96 0
v -160 -80 0
v -144 -80 0
v -128 -96 0
v -144 -96 0
v -144 -80 0
v -128 -80 0
v -112 -96 0
v -128 -96 0
v -128 -80 0
v -112 -80 0
v -96 -96 0
v -112 -96 0
v -112 -80 0
v -96 -80 0
v -80 -96 0
v -96 -96 0
v -96 -80 0
v -80 -80 0
v -64 -96 0
v -80 -96 0
v -80 -80 0
v -64 -80 0
v -48 -96 0
v -64 -96 0
v -64 -80 0
v -48 -80 0
v -32 -96 0
v -48 -96 0
v -48 -80 0
v -32 -80 0
v -16 -96 0
v -32 -96 0
v -32 -80 0
v -16 -80 0
v 0 -96 0
v -16 -96 0
v -16 -80 0
v 0 -80 0

# Texture cooridinates (Count = 56)
vt 0.8780992 0.7756654
vt 0.8946281 0.7756654
vt 0.8946281 0.8060837
vt 0.8780992 0.8060837
vt 0.8780992 0.8726236
vt 0.8946281 0.8726236
vt 0.8946281 0.9030418
vt 0.8780992 0.9030418
vt 0.8780992 0.9695817
vt 0.8946281 0.9695817
vt 0.8946281 1
vt 0.8780992 1
vt 0.4566116 0.7110266
vt 0.4731405 0.7110266
vt 0.4731405 0.7414448
vt 0.4566116 0.7414448
vt 0.8780992 0.743346
vt 0.8946281 0.743346
vt 0.8946281 0.7737643
vt 0.8780992 0.7737643
vt 0.8780992 0.8403042
vt 0.8946281 0.8403042
vt 0.8946281 0.8707224
vt 0.8780992 0.8707224
vt 0.8780992 0.9372624
vt 0.8946281 0.9372624
vt 0.8946281 0.9676806
vt 0.8780992 0.9676806
vt 0.8780992 0.7110266
vt 0.8946281 0.7110266
vt 0.8946281 0.7414448
vt 0.8780992 0.7414448
vt 0.8780992 0.8079848
vt 0.8946281 0.8079848
vt 0.8946281 0.838403
vt 0.8780992 0.838403
vt 0.8780992 0.904943
vt 0.8946281 0.904943
vt 0.8946281 0.9353612
vt 0.8780992 0.9353612
vt 0.5795454 0.4524715
vt 0.5960744 0.4524715
vt 0.5960744 0.4828897
vt 0.5795454 0.4828897
vt 0.5619835 0.4524715
vt 0.5785124 0.4524715
vt 0.5785124 0.4828897
vt 0.5619835 0.4828897
vt 0.5268595 0.4847909
vt 0.5433884 0.4847909
vt 0.5433884 0.5152091
vt 0.5268595 0.5152091
vt 0.4741735 0.4847909
vt 0.4907025 0.4847909
vt 0.4907025 0.5152091
vt 0.4741735 0.5152091

# Normal
vn 0 0 -1

# Mesh description
g Treasury_mesh_0003

# Faces
f 1/1/1 2/2/1 3/3/1 4/4/1
f 5/5/1 6/6/1 7/7/1 8/8/1
f 9/9/1 10/10/1 11/11/1 12/12/1
f 13/13/1 14/14/1 15/15/1 16/16/1
f 17/17/1 18/18/1 19/19/1 20/20/1
f 21/21/1 22/22/1 23/23/1 24/24/1
f 25/25/1 26/26/1 27/27/1 28/28/1
f 29/29/1 30/30/1 31/31/1 32/32/1
f 33/33/1 34/34/1 35/35/1 36/36/1
f 37/37/1 38/38/1 39/39/1 40/40/1
f 41/41/1 42/42/1 43/43/1 44/44/1
f 45/45/1 46/46/1 47/47/1 48/48/1
f 49/45/1 50/46/1 51/47/1 52/48/1
f 53/45/1 54/46/1 55/47/1 56/48/1
f 57/45/1 58/46/1 59/47/1 60/48/1
f 61/45/1 62/46/1 63/47/1 64/48/1
f 65/45/1 66/46/1 67/47/1 68/48/1
f 69/45/1 70/46/1 71/47/1 72/48/1
f 73/45/1 74/46/1 75/47/1 76/48/1
f 77/45/1 78/46/1 79/47/1 80/48/1
f 81/45/1 82/46/1 83/47/1 84/48/1
f 85/45/1 86/46/1 87/47/1 88/48/1
f 89/45/1 90/46/1 91/47/1 92/48/1
f 93/45/1 94/46/1 95/47/1 96/48/1
f 97/45/1 98/46/1 99/47/1 100/48/1
f 101/45/1 102/46/1 103/47/1 104/48/1
f 105/45/1 106/46/1 107/47/1 108/48/1
f 109/45/1 110/46/1 111/47/1 112/48/1
f 113/45/1 114/46/1 115/47/1 116/48/1
f 117/49/1 118/50/1 119/51/1 120/52/1
f 121/53/1 122/54/1 123/55/1 124/56/1
f 125/53/1 126/54/1 127/55/1 128/56/1
f 129/53/1 130/54/1 131/55/1 132/56/1
f 133/53/1 134/54/1 135/55/1 136/56/1
f 137/53/1 138/54/1 139/55/1 140/56/1
f 141/53/1 142/54/1 143/55/1 144/56/1
f 145/53/1 146/54/1 147/55/1 148/56/1
f 149/53/1 150/54/1 151/55/1 152/56/1
f 153/53/1 154/54/1 155/55/1 156/56/1
f 157/53/1 158/54/1 159/55/1 160/56/1
f 161/53/1 162/54/1 163/55/1 164/56/1
f 165/53/1 166/54/1 167/55/1 168/56/1
f 169/53/1 170/54/1 171/55/1 172/56/1
f 173/53/1 174/54/1 175/55/1 176/56/1
f 177/53/1 178/54/1 179/55/1 180/56/1
f 181/53/1 182/54/1 183/55/1 184/56/1
f 185/53/1 186/54/1 187/55/1 188/56/1
f 189/53/1 190/54/1 191/55/1 192/56/1

