# Tiled2Unity generated file. Do not modify by hand.
# Wavefront file for 'Treasury_mesh_0002.obj'

# Vertices (Count = 28)
v -288 -80 0
v -304 -80 0
v -304 -64 0
v -288 -64 0
v -160 -176 0
v -176 -176 0
v -176 -160 0
v -160 -160 0
v -144 -176 0
v -160 -176 0
v -160 -160 0
v -144 -160 0
v -128 -176 0
v -144 -176 0
v -144 -160 0
v -128 -160 0
v -160 -192 0
v -176 -192 0
v -176 -176 0
v -160 -176 0
v -144 -192 0
v -160 -192 0
v -160 -176 0
v -144 -176 0
v -128 -192 0
v -144 -192 0
v -144 -176 0
v -128 -176 0

# Texture cooridinates (Count = 28)
vt 0.7902893 0.4847909
vt 0.8068182 0.4847909
vt 0.8068182 0.5152091
vt 0.7902893 0.5152091
vt 0.2458678 0.161597
vt 0.2623967 0.161597
vt 0.2623967 0.1920152
vt 0.2458678 0.1920152
vt 0.2283058 0.161597
vt 0.2448347 0.161597
vt 0.2448347 0.1920152
vt 0.2283058 0.1920152
vt 0.2107438 0.161597
vt 0.2272727 0.161597
vt 0.2272727 0.1920152
vt 0.2107438 0.1920152
vt 0.2458678 0.09695816
vt 0.2623967 0.09695816
vt 0.2623967 0.1273764
vt 0.2458678 0.1273764
vt 0.2283058 0.09695816
vt 0.2448347 0.09695816
vt 0.2448347 0.1273764
vt 0.2283058 0.1273764
vt 0.2107438 0.09695816
vt 0.2272727 0.09695816
vt 0.2272727 0.1273764
vt 0.2107438 0.1273764

# Normal
vn 0 0 -1

# Mesh description
g Treasury_mesh_0002

# Faces
f 1/1/1 2/2/1 3/3/1 4/4/1
f 5/5/1 6/6/1 7/7/1 8/8/1
f 9/9/1 10/10/1 11/11/1 12/12/1
f 13/13/1 14/14/1 15/15/1 16/16/1
f 17/17/1 18/18/1 19/19/1 20/20/1
f 21/21/1 22/22/1 23/23/1 24/24/1
f 25/25/1 26/26/1 27/27/1 28/28/1

